<svg width="24" height="24" viewBox="0 0 24 24" fill="none" xmlns="http://www.w3.org/2000/svg">
<path d="M14.807 14.751C14.674 14.8988 14.4877 14.9878 14.2891 14.9983C14.0905 15.0088 13.8959 14.94 13.748 14.807L11.248 12.557C11.17 12.4867 11.1077 12.4008 11.065 12.3048C11.0223 12.2089 11.0002 12.105 11.0002 12C11.0002 11.895 11.0223 11.7911 11.065 11.6952C11.1077 11.5992 11.17 11.5133 11.248 11.443L13.748 9.193C13.8959 9.05986 14.0905 8.99091 14.2892 9.00132C14.4879 9.01173 14.6744 9.10064 14.8075 9.2485C14.9406 9.39636 15.0096 9.59105 14.9992 9.78974C14.9888 9.98844 14.8999 10.1749 14.752 10.308L13.704 11.25H17.25C17.3485 11.25 17.446 11.2694 17.537 11.3071C17.628 11.3448 17.7107 11.4 17.7803 11.4697C17.85 11.5393 17.9052 11.622 17.9429 11.713C17.9806 11.804 18 11.9015 18 12C18 12.0985 17.9806 12.196 17.9429 12.287C17.9052 12.378 17.85 12.4607 17.7803 12.5303C17.7107 12.6 17.628 12.6552 17.537 12.6929C17.446 12.7306 17.3485 12.75 17.25 12.75H13.704L14.752 13.692C14.8253 13.758 14.8848 13.8377 14.9273 13.9267C14.9697 14.0157 14.9941 14.1121 14.9993 14.2106C15.0044 14.309 14.99 14.4075 14.957 14.5004C14.924 14.5933 14.8731 14.6788 14.807 14.752V14.751ZM2 6.75C2 6.38886 2.07113 6.03127 2.20933 5.69762C2.34753 5.36398 2.5501 5.06082 2.80546 4.80546C3.06082 4.5501 3.36398 4.34753 3.69762 4.20933C4.03127 4.07113 4.38886 4 4.75 4H19.25C19.6111 4 19.9687 4.07113 20.3024 4.20933C20.636 4.34753 20.9392 4.5501 21.1945 4.80546C21.4499 5.06082 21.6525 5.36398 21.7907 5.69762C21.9289 6.03127 22 6.38886 22 6.75V17.25C22 17.9793 21.7103 18.6788 21.1945 19.1945C20.6788 19.7103 19.9793 20 19.25 20H4.75C4.02065 20 3.32118 19.7103 2.80546 19.1945C2.28973 18.6788 2 17.9793 2 17.25V6.75ZM4.75 5.5C4.06 5.5 3.5 6.06 3.5 6.75V17.251C3.5 17.941 4.06 18.501 4.75 18.501H8.004V5.5H4.75ZM9.504 5.5V18.5H19.25C19.94 18.5 20.5 17.94 20.5 17.25V6.75C20.5 6.06 19.94 5.5 19.25 5.5H9.504Z" fill="#2C322B" opacity="0.9" />
</svg>