<svg width="24" height="24" viewBox="0 0 24 24" fill="none" xmlns="http://www.w3.org/2000/svg">
<path d="M9.193 9.249C9.32602 9.10117 9.51231 9.01223 9.71091 9.00173C9.9095 8.99123 10.1041 9.06003 10.252 9.193L12.752 11.443C12.83 11.5133 12.8923 11.5992 12.935 11.6952C12.9777 11.7911 12.9998 11.895 12.9998 12C12.9998 12.105 12.9777 12.2089 12.935 12.3048C12.8923 12.4008 12.83 12.4867 12.752 12.557L10.252 14.807C10.1041 14.9401 9.90945 15.0091 9.71076 14.9987C9.51206 14.9883 9.32564 14.8994 9.1925 14.7515C9.05936 14.6036 8.99041 14.409 9.00082 14.2103C9.01123 14.0116 9.10014 13.8251 9.248 13.692L10.296 12.75H6.75C6.65151 12.75 6.55398 12.7306 6.46299 12.6929C6.37199 12.6552 6.28931 12.6 6.21967 12.5303C6.15003 12.4607 6.09478 12.378 6.05709 12.287C6.0194 12.196 6 12.0985 6 12C6 11.9015 6.0194 11.804 6.05709 11.713C6.09478 11.622 6.15003 11.5393 6.21967 11.4697C6.28931 11.4 6.37199 11.3448 6.46299 11.3071C6.55398 11.2694 6.65151 11.25 6.75 11.25H10.296L9.248 10.308C9.17473 10.242 9.11517 10.1623 9.07275 10.0733C9.03032 9.98433 9.00585 9.88785 9.00074 9.7894C8.99563 9.69095 9.00998 9.59246 9.04297 9.49956C9.07596 9.40666 9.12694 9.32118 9.193 9.248V9.249ZM22 17.25C22 17.6111 21.9289 17.9687 21.7907 18.3024C21.6525 18.636 21.4499 18.9392 21.1945 19.1945C20.9392 19.4499 20.636 19.6525 20.3024 19.7907C19.9687 19.9289 19.6111 20 19.25 20H4.75C4.38886 20 4.03127 19.9289 3.69762 19.7907C3.36398 19.6525 3.06082 19.4499 2.80546 19.1945C2.5501 18.9392 2.34753 18.636 2.20933 18.3024C2.07113 17.9687 2 17.6111 2 17.25V6.75C2 6.02065 2.28973 5.32118 2.80546 4.80546C3.32118 4.28973 4.02065 4 4.75 4H19.25C19.9793 4 20.6788 4.28973 21.1945 4.80546C21.7103 5.32118 22 6.02065 22 6.75V17.25ZM19.25 18.5C19.94 18.5 20.5 17.94 20.5 17.25V6.749C20.5 6.059 19.94 5.499 19.25 5.499H15.996V18.5H19.25ZM14.496 18.5V5.5H4.75C4.06 5.5 3.5 6.06 3.5 6.75V17.25C3.5 17.94 4.06 18.5 4.75 18.5H14.496Z" fill="#2C322B"/>
</svg>
