<svg width="20" height="20" viewBox="0 0 20 20" fill="none" xmlns="http://www.w3.org/2000/svg">
<g clip-path="url(#clip0_398_1041)">
<path d="M10 6.25048L7.77337 4.58048C7.46231 4.34715 7.07946 4.22992 6.69108 4.2491C6.30271 4.26827 5.93327 4.42264 5.6467 4.68548L2.20671 7.83881C1.86254 8.15381 1.6667 8.59881 1.6667 9.06631L1.6667 12.9171C1.6667 14.9171 3.33337 16.2505 5.00004 16.2505L12.1425 16.2505M11.6667 13.7505L12.1425 13.7505C14.0475 13.7505 14.0475 16.2505 12.1425 16.2505" stroke="#659038" stroke-width="1.5" stroke-linecap="round" stroke-linejoin="round"/>
<path d="M11.6667 11.25L13.095 11.25C15 11.25 15 13.75 13.095 13.75L11.6667 13.75M11.6667 8.75L13.75 8.75C15.655 8.75 15.655 11.25 13.75 11.25L11.6667 11.25M11.6667 8.75L17.0842 8.75C17.4156 8.74978 17.7333 8.61799 17.9676 8.38359C18.2018 8.14919 18.3334 7.83138 18.3334 7.5C18.3334 7.16848 18.2017 6.85054 17.9673 6.61612C17.7328 6.3817 17.4149 6.25 17.0834 6.25L7.50005 6.25" stroke="#659038" stroke-width="1.5" stroke-linecap="round" stroke-linejoin="round"/>
</g>
<defs>
<clipPath id="clip0_398_1041">
<rect width="20" height="20" fill="white" transform="translate(20) rotate(90)"/>
</clipPath>
</defs>
</svg>
