<svg width="24" height="24" opacity="0.9" viewBox="0 0 24 24" fill="none" xmlns="http://www.w3.org/2000/svg">
<path d="M7 11H3C2.44772 11 2 11.4477 2 12C2 12.5523 2.44772 13 3 13H7C7.55228 13 8 12.5523 8 12C8 11.4477 7.55228 11 7 11Z" fill="#2C322B"/>
<path fill-rule="evenodd" clip-rule="evenodd" d="M19 10C19 11.02 18.69 11.96 18.17 12.75L21.6569 16.246C21.8671 16.4293 22 16.6992 22 17C22 17.5523 21.5523 18 21 18C20.696 18 20.4237 17.8644 20.2403 17.6503L16.76 14.17C15.96 14.69 15.02 15 14 15C11.24 15 9 12.76 9 10C9 7.24 11.24 5 14 5C16.76 5 19 7.24 19 10ZM11 10C11 11.65 12.35 13 14 13C15.65 13 17 11.65 17 10C17 8.35 15.65 7 14 7C12.35 7 11 8.35 11 10Z" fill="#2C322B"/>
<path d="M7 6H3C2.44772 6 2 6.44772 2 7C2 7.55228 2.44772 8 3 8H7C7.55228 8 8 7.55228 8 7C8 6.44772 7.55228 6 7 6Z" fill="#2C322B"/>
<path d="M12 16H3C2.44772 16 2 16.4477 2 17C2 17.5523 2.44772 18 3 18H12C12.5523 18 13 17.5523 13 17C13 16.4477 12.5523 16 12 16Z" fill="#2C322B"/>
</svg>
