<svg width="21" height="19" viewBox="0 0 21 19" fill="none" xmlns="http://www.w3.org/2000/svg">
<path d="M4.10872 5.26741L5.70272 4.77941C5.82833 4.741 5.96028 4.7277 6.09103 4.74029C6.22177 4.75287 6.34876 4.79108 6.46474 4.85274C6.58072 4.91439 6.68342 4.99829 6.76698 5.09964C6.85054 5.20099 6.91331 5.3178 6.95172 5.44341C6.99014 5.56902 7.00343 5.70097 6.99085 5.83171C6.97827 5.96246 6.94006 6.08945 6.8784 6.20543C6.81674 6.32141 6.73284 6.42411 6.6315 6.50767C6.53015 6.59122 6.41333 6.654 6.28772 6.69241L2.46272 7.86241C2.33705 7.90083 2.20504 7.91411 2.07423 7.90148C1.94342 7.88884 1.81639 7.85055 1.70039 7.78879C1.58439 7.72703 1.4817 7.64301 1.3982 7.54154C1.31469 7.44007 1.25201 7.32313 1.21372 7.19741L0.0437243 3.37241C0.00531264 3.2468 -0.00798228 3.11486 0.00459861 2.98411C0.0171795 2.85336 0.0553898 2.72637 0.117048 2.61039C0.178706 2.49441 0.262604 2.39171 0.363953 2.30816C0.465301 2.2246 0.582115 2.16182 0.707724 2.12341C0.961404 2.04584 1.23551 2.07221 1.46974 2.19674C1.70398 2.32126 1.87915 2.53373 1.95672 2.78741L2.5 4.45898C4.908 0.749984 9.58172 -1.07559 13.8227 0.662412C15.091 1.18227 16.23 1.97376 17.1595 2.98117C18.089 3.98858 18.7864 5.18745 19.2027 6.49341C19.2454 6.61922 19.2626 6.75226 19.2533 6.88478C19.244 7.0173 19.2083 7.14663 19.1485 7.26523C19.0886 7.38383 19.0057 7.48931 18.9046 7.57551C18.8036 7.66172 18.6863 7.72692 18.5598 7.76731C18.4332 7.80771 18.2999 7.82248 18.1676 7.81076C18.0352 7.79905 17.9066 7.76109 17.7891 7.6991C17.6716 7.6371 17.5676 7.55232 17.4832 7.4497C17.3989 7.34708 17.3358 7.22868 17.2977 7.10141C16.8753 5.77478 16.0862 4.5947 15.0216 3.69741C13.957 2.80012 12.6604 2.22223 11.2814 2.03046C9.90239 1.83869 8.49727 2.04086 7.22827 2.61362C5.95927 3.18639 4.87714 4.1064 4.10872 5.26741ZM16.4357 13.4624L14.6607 13.9054C14.5322 13.9407 14.3979 13.9499 14.2658 13.9325C14.1337 13.9151 14.0063 13.8715 13.8913 13.8042C13.7763 13.7369 13.6759 13.6473 13.5959 13.5406C13.516 13.4339 13.4583 13.3124 13.426 13.1831C13.3937 13.0538 13.3877 12.9193 13.4081 12.7876C13.4285 12.6559 13.4751 12.5297 13.545 12.4162C13.615 12.3028 13.7069 12.2045 13.8154 12.127C13.9238 12.0496 14.0467 11.9947 14.1767 11.9654L17.8197 11.0564C18.0095 10.9661 18.223 10.9381 18.4297 10.9764C18.6289 11.0026 18.8155 11.0882 18.9653 11.2219C19.1152 11.3557 19.2212 11.5315 19.2697 11.7264L20.2377 15.6064C20.2951 15.8612 20.2504 16.1284 20.1133 16.3507C19.9763 16.5731 19.7576 16.733 19.5042 16.7962C19.2507 16.8594 18.9826 16.821 18.7572 16.6891C18.5317 16.5572 18.3668 16.3423 18.2977 16.0904L17.9677 14.7684C17.0049 16.154 15.6862 17.2542 14.1505 17.9532C12.6149 18.6522 10.9191 18.9241 9.24189 18.7403C7.56468 18.5564 5.96809 17.9236 4.62033 16.9085C3.27257 15.8935 2.22353 14.5337 1.58372 12.9724L1.32372 12.3384C1.27395 12.2169 1.24861 12.0867 1.24914 11.9554C1.24967 11.8241 1.27606 11.6941 1.3268 11.573C1.37755 11.4518 1.45166 11.3419 1.5449 11.2494C1.63814 11.1569 1.74869 11.0837 1.87022 11.0339C2.11568 10.9334 2.39102 10.9345 2.63566 11.037C2.75679 11.0877 2.86674 11.1618 2.95924 11.2551C3.05173 11.3483 3.12495 11.4589 3.17472 11.5804L3.43472 12.2134C3.94447 13.4572 4.78422 14.5382 5.86334 15.3398C6.94246 16.1413 8.21997 16.6329 9.55803 16.7615C10.8961 16.8902 12.2439 16.651 13.4559 16.0698C14.668 15.4885 15.6983 14.5863 16.4357 13.4624Z" fill="#2C322B"/>
</svg>
